# xmcd CD database file
#
# Track frame offsets:
#	150
#	20257
#	34838
#	51132
#	68616
#	82811
#	102658
#	122540
#	148625
#	164949
#	190261
#	209077
#	224628
#	242989
#
# Disc length: 3591 seconds
#
# Revision: 0
# Processed by: cddbd v1.5.2PL0 Copyright (c) Steve Scherf et al.
# Submitted via: CDex 1.51
#
DISCID=d50e050e
DTITLE=Varios artistas - Cantos del Alma 2
DYEAR=1995
DGENRE=New Age
TTITLE0=Sambolera Nayison
TTITLE1=Cantus Inaqualis
TTITLE2=Prince Igor
TTITLE3=Foreign Affair
TTITLE4=Oxigene Part 4
TTITLE5=Heaven in a while flower
TTITLE6=Yeha Noha
TTITLE7=Tchokola
TTITLE8=Mana "Chant du Pacifique"
TTITLE9=Desert of Rain
TTITLE10=Mama Rava
TTITLE11=Caribbean Blue
TTITLE12=La Rose des Vents
TTITLE13=Voyage
EXTD=YEAR: 1995
EXTT0=
EXTT1=
EXTT2=
EXTT3=
EXTT4=
EXTT5=
EXTT6=
EXTT7=
EXTT8=
EXTT9=
EXTT10=
EXTT11=
EXTT12=
EXTT13=
PLAYORDER=
